<svg width="800" height="800" viewBox="0 0 800 800" fill="none" xmlns="http://www.w3.org/2000/svg">
<g clip-path="url(#clip0_158_14)">
<path d="M682.67 156.822L631.166 733.796L399.654 797.979L168.779 733.886L117.33 156.822H682.67Z" fill="#E44D26"/>
<path d="M400 748.92L587.073 697.056L631.087 204.005H400V748.92Z" fill="#F16529"/>
<path d="M299.879 345.556H400V274.781H222.531L224.225 293.768L241.62 488.804H400V418.03H306.347L299.879 345.556Z" fill="#EBEBEB"/>
<path d="M315.829 524.193H244.782L254.698 635.319L399.674 675.565L400 675.475V601.84L399.69 601.922L320.868 580.639L315.829 524.193Z" fill="#EBEBEB"/>
<path d="M169.93 -2.09808e-05H205.896V35.535H238.797V-2.09808e-05H274.766V107.609H238.799V71.5749H205.898V107.609H169.931L169.93 -2.09808e-05Z" fill="white"/>
<path d="M322.063 35.6846H290.399V-2.09808e-05H389.71V35.6846H358.033V107.609H322.065L322.063 35.6846Z" fill="white"/>
<path d="M405.472 -2.09808e-05H442.975L466.045 37.8105L489.091 -2.09808e-05H526.609V107.609H490.79V54.2719L466.045 92.5328H465.426L440.664 54.2719V107.609H405.472V-2.09808e-05Z" fill="white"/>
<path d="M544.509 -2.09808e-05H580.487V72.0394H631.066V107.609H544.509V-2.09808e-05Z" fill="white"/>
<path d="M399.755 488.804H486.906L478.691 580.593L399.755 601.899V675.531L544.847 635.319L545.912 623.362L562.543 437.035L564.27 418.03H399.755V488.804Z" fill="white"/>
<path d="M399.755 345.383V345.556H570.71L572.13 329.648L575.354 293.768L577.047 274.781H399.755V345.383Z" fill="white"/>
</g>
<defs>
<clipPath id="clip0_158_14">
<rect width="800" height="800" fill="white"/>
</clipPath>
</defs>
</svg>
