<svg width="800" height="800" viewBox="0 0 800 800" fill="none" xmlns="http://www.w3.org/2000/svg">
<path d="M96.1375 367.217C96.1375 367.217 368.879 255.625 463.471 216.333C499.729 200.617 622.7 150.321 622.7 150.321C622.7 150.321 679.454 128.321 674.725 181.754C673.146 203.758 660.533 280.771 647.921 364.071C629.004 481.95 608.508 610.825 608.508 610.825C608.508 610.825 605.358 646.975 578.558 653.262C551.754 659.55 507.612 631.258 499.729 624.971C493.425 620.254 381.492 549.529 340.504 514.954C329.467 505.525 316.854 486.662 342.079 464.658C398.833 412.796 466.625 348.354 507.613 307.492C526.529 288.629 545.45 244.621 466.625 298.058C354.692 375.071 244.333 447.371 244.333 447.371C244.333 447.371 219.113 463.087 171.817 448.942C124.521 434.796 69.3417 415.937 69.3417 415.937C69.3417 415.937 31.5084 392.358 96.1459 367.217H96.1375Z" stroke="white" stroke-width="50"/>
</svg>
