<svg width="800" height="800" viewBox="0 0 800 800" fill="none" xmlns="http://www.w3.org/2000/svg">
<g clip-path="url(#clip0_158_60)">
<path fill-rule="evenodd" clip-rule="evenodd" d="M245.729 318.75H25.1505C11.1912 318.75 -0.109184 330.161 0.000796027 344.01V428.208C0.000796027 442.167 11.302 453.468 25.2613 453.468H129.734L177.484 480.057L166.627 453.468H245.729C259.689 453.468 270.988 442.167 270.988 428.208V344.01C270.988 330.05 259.689 318.75 245.729 318.75ZM20.4979 338.249C17.3958 338.47 15.0692 339.578 13.5182 341.683C11.9672 343.677 11.4133 346.225 11.7456 349.106C18.2821 390.652 24.3754 418.681 30.0256 433.194C32.2414 438.511 34.7895 441.06 37.7808 440.838C42.4338 440.506 47.9732 434.08 54.5097 421.561C57.9441 414.47 63.262 403.835 70.4632 389.654C76.4454 410.593 84.6436 426.325 94.9473 436.85C97.828 439.841 100.819 441.171 103.699 440.949C106.248 440.727 108.242 439.398 109.571 436.96C110.679 434.855 111.122 432.418 110.901 429.648C110.236 419.567 111.233 405.497 114.003 387.438C116.883 368.826 120.428 355.421 124.749 347.444C125.635 345.782 125.968 344.12 125.857 342.126C125.635 339.578 124.528 337.473 122.423 335.811C120.318 334.15 117.991 333.374 115.443 333.596C112.23 333.817 109.793 335.368 108.131 338.47C101.262 350.989 96.3873 371.263 93.5073 399.403C89.2971 388.768 85.7516 376.249 82.982 361.514C81.7636 354.978 78.7725 351.876 73.8974 352.208C70.5739 352.429 67.8043 354.645 65.5885 358.855L41.326 405.054C37.3376 388.989 33.5708 369.38 30.1364 346.225C29.3609 340.464 26.148 337.805 20.4979 338.249ZM233.986 346.226C241.852 347.888 247.724 352.097 251.712 359.077C255.257 365.06 257.029 372.261 257.029 380.902C257.029 392.313 254.149 402.727 248.388 412.255C241.741 423.334 233.1 428.873 222.353 428.873C220.47 428.873 218.476 428.652 216.37 428.208C208.505 426.547 202.633 422.337 198.644 415.357C195.1 409.264 193.327 401.952 193.327 393.421C193.327 382.01 196.208 371.596 201.968 362.179C208.726 351.1 217.368 345.561 228.004 345.561C229.887 345.561 231.881 345.783 233.986 346.226ZM229.333 406.162C233.432 402.506 236.202 397.077 237.753 389.765C238.196 387.217 238.528 384.447 238.528 381.567C238.528 378.354 237.863 374.92 236.534 371.485C234.872 367.165 232.656 364.838 229.997 364.284C226.009 363.509 222.132 365.724 218.476 371.153C215.485 375.363 213.601 379.794 212.604 384.337C212.05 386.885 211.828 389.655 211.828 392.424C211.828 395.637 212.493 399.071 213.822 402.506C215.485 406.826 217.7 409.153 220.359 409.707C223.129 410.261 226.12 409.042 229.333 406.162ZM182.248 359.077C178.259 352.097 172.277 347.888 164.522 346.226C162.416 345.783 160.423 345.561 158.539 345.561C147.904 345.561 139.262 351.1 132.504 362.179C126.743 371.596 123.863 382.01 123.863 393.421C123.863 401.952 125.635 409.264 129.18 415.357C133.169 422.337 139.041 426.547 146.906 428.208C149.011 428.652 151.005 428.873 152.889 428.873C163.635 428.873 172.277 423.334 178.924 412.255C184.685 402.727 187.565 392.313 187.565 380.902C187.565 372.261 185.793 365.06 182.248 359.077ZM168.288 389.765C166.738 397.077 163.968 402.506 159.868 406.162C156.656 409.042 153.665 410.261 150.895 409.707C148.236 409.153 146.02 406.826 144.358 402.506C143.029 399.071 142.364 395.637 142.364 392.424C142.364 389.655 142.586 386.885 143.14 384.337C144.137 379.794 146.02 375.363 149.011 371.153C152.668 365.724 156.545 363.509 160.533 364.284C163.192 364.838 165.408 367.165 167.07 371.485C168.399 374.92 169.064 378.354 169.064 381.567C169.064 384.447 168.843 387.217 168.288 389.765Z" fill="#7F54B3"/>
<path fill-rule="evenodd" clip-rule="evenodd" d="M299.018 358.079C291.595 365.391 287.939 374.698 287.939 385.998C287.939 398.074 291.595 407.934 298.908 415.357C306.22 422.78 315.747 426.546 327.601 426.546C331.036 426.546 334.913 425.992 339.124 424.773V406.826C335.246 407.934 331.922 408.488 329.041 408.488C323.17 408.488 318.517 406.494 314.971 402.616C311.427 398.628 309.654 393.31 309.654 386.552C309.654 380.237 311.427 375.03 314.861 371.042C318.406 366.942 322.726 364.948 328.045 364.948C331.479 364.948 335.135 365.502 339.124 366.61V348.662C335.468 347.665 331.369 347.222 327.047 347.222C315.747 347.111 306.441 350.767 299.018 358.079ZM375.905 347.111C365.713 347.111 357.736 350.546 351.975 357.304C346.214 364.062 343.444 373.59 343.444 385.776C343.444 398.96 346.324 409.042 351.975 416.021C357.625 423.001 365.934 426.546 376.792 426.546C387.316 426.546 395.403 423.001 401.054 416.021C406.704 409.042 409.585 399.182 409.585 386.552C409.585 373.922 406.704 364.173 400.943 357.304C395.071 350.546 386.762 347.111 375.905 347.111ZM384.657 404.721C382.663 407.823 379.672 409.374 375.905 409.374C372.36 409.374 369.701 407.823 367.817 404.721C365.934 401.619 365.048 395.415 365.048 385.998C365.048 371.485 368.704 364.283 376.127 364.283C383.882 364.283 387.87 371.596 387.87 386.33C387.759 395.415 386.651 401.619 384.657 404.721ZM464.314 349.216L460.325 366.167C459.328 370.488 458.331 374.919 457.445 379.461L455.229 391.205C453.124 379.461 450.244 365.502 446.588 349.216H420.885L411.246 424.663H430.523L435.73 372.703L448.914 424.663H462.652L475.282 372.814L480.71 424.663H500.874L490.681 349.216H464.314ZM556.6 349.216L552.612 366.167C551.614 370.488 550.617 374.919 549.731 379.461L547.515 391.205C545.41 379.461 542.53 365.502 538.874 349.216H513.171L503.533 424.663H522.809L528.016 372.703L541.2 424.663H554.938L567.457 372.814L572.886 424.663H593.049L582.857 349.216H556.6ZM619.306 394.861H637.364V379.24H619.306V365.391H640.134V349.327H598.921V424.773H640.245V408.71H619.306V394.861ZM697.633 382.896C699.738 379.461 700.845 375.916 700.845 372.26C700.845 365.17 698.076 359.52 692.537 355.42C686.997 351.321 679.353 349.216 669.825 349.216H646.116V424.663H666.501V390.319H666.834L683.341 424.663H704.834L688.548 390.651C692.426 388.878 695.528 386.33 697.633 382.896ZM666.391 381.677V363.73C671.265 363.84 674.7 364.616 676.805 366.167C678.91 367.718 679.907 370.155 679.907 373.7C679.907 378.907 675.364 381.566 666.391 381.677ZM712.808 358.079C705.388 365.391 701.732 374.698 701.732 385.998C701.732 398.074 705.388 407.934 712.702 415.357C720.015 422.78 729.537 426.546 741.395 426.546C744.829 426.546 748.709 425.992 752.914 424.773V406.826C749.041 407.934 745.714 408.488 742.833 408.488C736.964 408.488 732.312 406.494 728.765 402.616C725.218 398.628 723.449 393.31 723.449 386.552C723.449 380.237 725.218 375.03 728.652 371.042C732.199 366.942 736.518 364.948 741.834 364.948C745.268 364.948 748.928 365.502 752.914 366.61V348.662C749.261 347.665 745.162 347.222 740.843 347.222C729.65 347.111 720.234 350.767 712.808 358.079ZM778.953 408.488V394.75H797.006V379.129H778.953V365.281H799.887V349.216H758.677V424.663H800.001V408.598H778.953V408.488Z" fill="white"/>
</g>
<defs>
<clipPath id="clip0_158_60">
<rect width="800" height="800" fill="white"/>
</clipPath>
</defs>
</svg>
